HIERARCHY
ROOT Hips
{
  OFFSET -553.984 91.5098 755.595
  CHANNELS 6 Xposition Yposition Zposition Zrotation Xrotation Yrotation
  JOINT Spine
  {
    OFFSET 0 8 0
    CHANNELS 6 Xposition Yposition Zposition Zrotation Xrotation Yrotation
    JOINT Spine1
    {
      OFFSET 5.8554e-05 7.99982 0.0541107
      CHANNELS 6 Xposition Yposition Zposition Zrotation Xrotation Yrotation
      JOINT Spine2
      {
        OFFSET -4.55257e-05 8 -1.35045e-05
        CHANNELS 6 Xposition Yposition Zposition Zrotation Xrotation Yrotation
        JOINT Spine3
        {
          OFFSET 0 8 0
          CHANNELS 6 Xposition Yposition Zposition Zrotation Xrotation Yrotation
          JOINT Neck
          {
            OFFSET 0.00013842 17 -0.000235679
            CHANNELS 6 Xposition Yposition Zposition Zrotation Xrotation Yrotation
            JOINT Head
            {
              OFFSET -2.79249e-05 10.8 -3.45018e-05
              CHANNELS 6 Xposition Yposition Zposition Zrotation Xrotation Yrotation
              End Site
              {
                OFFSET 0 20.25 0
              }
            }
          }
          JOINT LeftShoulder
          {
            OFFSET 5.00009 17 -0.000209452
            CHANNELS 6 Xposition Yposition Zposition Zrotation Xrotation Yrotation
            JOINT LeftShoulder2
            {
              OFFSET 6.45 0 0
              CHANNELS 6 Xposition Yposition Zposition Zrotation Xrotation Yrotation
              JOINT LeftArm
              {
                OFFSET 6.45002 -0.000380746 -0.000799123
                CHANNELS 6 Xposition Yposition Zposition Zrotation Xrotation Yrotation
                JOINT LeftForeArm
                {
                  OFFSET -2.96438e-05 -32.4 -2.06934
                  CHANNELS 6 Xposition Yposition Zposition Zrotation Xrotation Yrotation
                  JOINT LeftHand
                  {
                    OFFSET 5.40935e-05 -25.653 2.00003
                    CHANNELS 6 Xposition Yposition Zposition Zrotation Xrotation Yrotation
                    JOINT LeftHandThumb1
                    {
                      OFFSET -0.49998 -1.49996 2.64995
                      CHANNELS 6 Xposition Yposition Zposition Zrotation Xrotation Yrotation
                      JOINT LeftHandThumb2
                      {
                        OFFSET -4.23455e-05 -3.79993 3.69995
                        CHANNELS 6 Xposition Yposition Zposition Zrotation Xrotation Yrotation
                        JOINT LeftHandThumb3
                        {
                          OFFSET -7.11941e-05 -2.99995 2.70007
                          CHANNELS 6 Xposition Yposition Zposition Zrotation Xrotation Yrotation
                          End Site
                          {
                            OFFSET 4.25176e-05 -2.29999 1.79998
                          }
                        }
                      }
                    }
                    JOINT LeftHandIndex
                    {
                      OFFSET -1.20962e-05 -1.90004 1.60004
                      CHANNELS 6 Xposition Yposition Zposition Zrotation Xrotation Yrotation
                      JOINT LeftHandIndex1
                      {
                        OFFSET 0 -8.30002 1.89997
                        CHANNELS 6 Xposition Yposition Zposition Zrotation Xrotation Yrotation
                        JOINT LeftHandIndex2
                        {
                          OFFSET -2.56198e-05 -4.49998 -4.97867e-05
                          CHANNELS 6 Xposition Yposition Zposition Zrotation Xrotation Yrotation
                          JOINT LeftHandIndex3
                          {
                            OFFSET 5.18516e-05 -3.4 3.07688e-05
                            CHANNELS 6 Xposition Yposition Zposition Zrotation Xrotation Yrotation
                            End Site
                            {
                              OFFSET -1.77615e-05 -2.60003 4.62406e-05
                            }
                          }
                        }
                      }
                    }
                    JOINT LeftHandMiddle
                    {
                      OFFSET -0.249994 -2.19998 0.400109
                      CHANNELS 6 Xposition Yposition Zposition Zrotation Xrotation Yrotation
                      JOINT LeftHandMiddle1
                      {
                        OFFSET -4.24415e-05 -8.30005 1.01989
                        CHANNELS 6 Xposition Yposition Zposition Zrotation Xrotation Yrotation
                        JOINT LeftHandMiddle2
                        {
                          OFFSET 1.06981e-05 -4.65001 4.63926e-05
                          CHANNELS 6 Xposition Yposition Zposition Zrotation Xrotation Yrotation
                          JOINT LeftHandMiddle3
                          {
                            OFFSET 0 -3.3 0
                            CHANNELS 6 Xposition Yposition Zposition Zrotation Xrotation Yrotation
                            End Site
                            {
                              OFFSET 0 -2.69995 3.70651e-05
                            }
                          }
                        }
                      }
                    }
                    JOINT LeftHandRing
                    {
                      OFFSET -0.500005 -2.05527 -0.799988
                      CHANNELS 6 Xposition Yposition Zposition Zrotation Xrotation Yrotation
                      JOINT LeftHandRing1
                      {
                        OFFSET 1.01416e-05 -7.79567 -0.200012
                        CHANNELS 6 Xposition Yposition Zposition Zrotation Xrotation Yrotation
                        JOINT LeftHandRing2
                        {
                          OFFSET -0.0407577 -3.79998 0.000111707
                          CHANNELS 6 Xposition Yposition Zposition Zrotation Xrotation Yrotation
                          JOINT LeftHandRing3
                          {
                            OFFSET 0.000873679 -3.39994 2.86094e-05
                            CHANNELS 6 Xposition Yposition Zposition Zrotation Xrotation Yrotation
                            End Site
                            {
                              OFFSET 3.49822e-05 -2.60001 -7.74836e-05
                            }
                          }
                        }
                      }
                    }
                    JOINT LeftHandPinky
                    {
                      OFFSET -0.749964 -1.74999 -1.84995
                      CHANNELS 6 Xposition Yposition Zposition Zrotation Xrotation Yrotation
                      JOINT LeftHandPinky1
                      {
                        OFFSET 6.79169e-05 -7.15004 -1.00003
                        CHANNELS 6 Xposition Yposition Zposition Zrotation Xrotation Yrotation
                        JOINT LeftHandPinky2
                        {
                          OFFSET 0.0563183 -2.99999 -6.59616e-05
                          CHANNELS 6 Xposition Yposition Zposition Zrotation Xrotation Yrotation
                          JOINT LeftHandPinky3
                          {
                            OFFSET -3.42138e-05 -2.35002 5.28653e-05
                            CHANNELS 6 Xposition Yposition Zposition Zrotation Xrotation Yrotation
                            End Site
                            {
                              OFFSET 1.82885e-05 -2.10005 2.2362e-05
                            }
                          }
                        }
                      }
                    }
                  }
                }
              }
            }
          }
          JOINT RightShoulder
          {
            OFFSET -4.99986 17 -0.000134694
            CHANNELS 6 Xposition Yposition Zposition Zrotation Xrotation Yrotation
            JOINT RightShoulder2
            {
              OFFSET -6.45 0 0
              CHANNELS 6 Xposition Yposition Zposition Zrotation Xrotation Yrotation
              JOINT RightArm
              {
                OFFSET -6.45002 0.000350595 0.000490307
                CHANNELS 6 Xposition Yposition Zposition Zrotation Xrotation Yrotation
                JOINT RightForeArm
                {
                  OFFSET 1.76949e-05 -32.4 -2.00003
                  CHANNELS 6 Xposition Yposition Zposition Zrotation Xrotation Yrotation
                  JOINT RightHand
                  {
                    OFFSET 0.072816 -25.6499 2.00006
                    CHANNELS 6 Xposition Yposition Zposition Zrotation Xrotation Yrotation
                    JOINT RightHandThumb1
                    {
                      OFFSET 0.499994 -1.50004 2.65001
                      CHANNELS 6 Xposition Yposition Zposition Zrotation Xrotation Yrotation
                      JOINT RightHandThumb2
                      {
                        OFFSET 0.0551468 -3.79997 3.70003
                        CHANNELS 6 Xposition Yposition Zposition Zrotation Xrotation Yrotation
                        JOINT RightHandThumb3
                        {
                          OFFSET 0.0173529 -3 2.70003
                          CHANNELS 6 Xposition Yposition Zposition Zrotation Xrotation Yrotation
                          End Site
                          {
                            OFFSET -6.31679e-05 -2.3 1.80002
                          }
                        }
                      }
                    }
                    JOINT RightHandIndex
                    {
                      OFFSET -1.42765e-05 -1.89999 1.60001
                      CHANNELS 6 Xposition Yposition Zposition Zrotation Xrotation Yrotation
                      JOINT RightHandIndex1
                      {
                        OFFSET 3.76413e-05 -8.30001 1.89997
                        CHANNELS 6 Xposition Yposition Zposition Zrotation Xrotation Yrotation
                        JOINT RightHandIndex2
                        {
                          OFFSET -3.50209e-05 -4.5 0.0327576
                          CHANNELS 6 Xposition Yposition Zposition Zrotation Xrotation Yrotation
                          JOINT RightHandIndex3
                          {
                            OFFSET 0 -3.39998 -5.03537e-05
                            CHANNELS 6 Xposition Yposition Zposition Zrotation Xrotation Yrotation
                            End Site
                            {
                              OFFSET -5.02689e-05 -2.60002 3.85525e-05
                            }
                          }
                        }
                      }
                    }
                    JOINT RightHandMiddle
                    {
                      OFFSET 0.250073 -2.2 0.399946
                      CHANNELS 6 Xposition Yposition Zposition Zrotation Xrotation Yrotation
                      JOINT RightHandMiddle1
                      {
                        OFFSET -1.44988e-05 -8.30001 1.00371
                        CHANNELS 6 Xposition Yposition Zposition Zrotation Xrotation Yrotation
                        JOINT RightHandMiddle2
                        {
                          OFFSET 3.05546e-05 -4.64997 -2.0707e-05
                          CHANNELS 6 Xposition Yposition Zposition Zrotation Xrotation Yrotation
                          JOINT RightHandMiddle3
                          {
                            OFFSET -4.81106e-05 -3.24465 2.59571e-05
                            CHANNELS 6 Xposition Yposition Zposition Zrotation Xrotation Yrotation
                            End Site
                            {
                              OFFSET -4.79199e-05 -2.69998 -8.31267e-05
                            }
                          }
                        }
                      }
                    }
                    JOINT RightHandRing
                    {
                      OFFSET 0.499923 -2.14996 -0.80004
                      CHANNELS 6 Xposition Yposition Zposition Zrotation Xrotation Yrotation
                      JOINT RightHandRing1
                      {
                        OFFSET -1.26108e-05 -7.74995 -0.199909
                        CHANNELS 6 Xposition Yposition Zposition Zrotation Xrotation Yrotation
                        JOINT RightHandRing2
                        {
                          OFFSET 4.74805e-05 -3.79999 -5.39279e-05
                          CHANNELS 6 Xposition Yposition Zposition Zrotation Xrotation Yrotation
                          JOINT RightHandRing3
                          {
                            OFFSET -7.99602e-05 -3.40004 0
                            CHANNELS 6 Xposition Yposition Zposition Zrotation Xrotation Yrotation
                            End Site
                            {
                              OFFSET 6.23506e-05 -2.60003 7.19029e-05
                            }
                          }
                        }
                      }
                    }
                    JOINT RightHandPinky
                    {
                      OFFSET 0.749986 -1.74995 -1.8371
                      CHANNELS 6 Xposition Yposition Zposition Zrotation Xrotation Yrotation
                      JOINT RightHandPinky1
                      {
                        OFFSET 5.61366e-05 -7.15007 -0.999961
                        CHANNELS 6 Xposition Yposition Zposition Zrotation Xrotation Yrotation
                        JOINT RightHandPinky2
                        {
                          OFFSET 3.97432e-05 -3.00004 2.94388e-05
                          CHANNELS 6 Xposition Yposition Zposition Zrotation Xrotation Yrotation
                          JOINT RightHandPinky3
                          {
                            OFFSET 0 -2.34996 1.46867e-05
                            CHANNELS 6 Xposition Yposition Zposition Zrotation Xrotation Yrotation
                            End Site
                            {
                              OFFSET 2.59978e-05 -2.10628 0.0147297
                            }
                          }
                        }
                      }
                    }
                  }
                }
              }
            }
          }
        }
      }
    }
  }
  JOINT LeftUpLeg
  {
    OFFSET 8.00002 0 -1.33196e-05
    CHANNELS 6 Xposition Yposition Zposition Zrotation Xrotation Yrotation
    JOINT LeftLeg
    {
      OFFSET -6.30835e-05 -45.0001 -0.999963
      CHANNELS 6 Xposition Yposition Zposition Zrotation Xrotation Yrotation
      JOINT LeftFoot
      {
        OFFSET -4.04961e-05 -41 -2.00004
        CHANNELS 6 Xposition Yposition Zposition Zrotation Xrotation Yrotation
        JOINT LeftToeBase
        {
          OFFSET -5.90721e-05 -7.5 12.4999
          CHANNELS 6 Xposition Yposition Zposition Zrotation Xrotation Yrotation
          JOINT LeftFootToe
          {
            OFFSET 0 0 4
            CHANNELS 6 Xposition Yposition Zposition Zrotation Xrotation Yrotation
            End Site
            {
              OFFSET 0 0 0
            }
          }
        }
      }
    }
  }
  JOINT RightUpLeg
  {
    OFFSET -8.00002 0 1.33196e-05
    CHANNELS 6 Xposition Yposition Zposition Zrotation Xrotation Yrotation
    JOINT RightLeg
    {
      OFFSET 1.16315e-05 -45 -1.00001
      CHANNELS 6 Xposition Yposition Zposition Zrotation Xrotation Yrotation
      JOINT RightFoot
      {
        OFFSET -6.95899e-05 -41 -1.99995
        CHANNELS 6 Xposition Yposition Zposition Zrotation Xrotation Yrotation
        JOINT RightToeBase
        {
          OFFSET 3.6107e-05 -7.5 12.5
          CHANNELS 6 Xposition Yposition Zposition Zrotation Xrotation Yrotation
          JOINT RightFootToe
          {
            OFFSET 0 0 4
            CHANNELS 6 Xposition Yposition Zposition Zrotation Xrotation Yrotation
            End Site
            {
              OFFSET 0 0 0
            }
          }
        }
      }
    }
  }
}
MOTION
Frames:	3
Frame Time:	0.0111111
-560.86 93.1542 749.793 -1.28052 -1.24388 -139.783 0 8 5.68434e-14 -5.31874 3.83211 7.72915 0 8 0 -0.329341 0.254939 2.18109 0 8 0 -0.163449 0.129044 1.09012 1.13687e-13 8 5.68434e-14 -0.16294 0.129078 1.08991 0 17 5.68434e-14 -0.837948 3.27035 3.12263 0 10.8 5.68434e-14 5.80757 -4.15491 7.58644 5 17 5.68434e-14 -10.3167 5.25285 0.278874 6.45 0 5.68434e-14 -0.707089 0.382497 -1.01534 6.45 5.68434e-14 5.68434e-14 7.3904 0.928771 51.1796 0 -32.4 -2 -66.5493 -40.1819 -25.6107 0 -25.65 2 -10.1079 17.1917 33.5216 -0.5 -1.5 2.65 0.232247 -45.0742 7.54704 -2.84217e-14 -3.8 3.7 0.136811 22.467 -0.152228 -2.84217e-14 -3 2.7 0.0409308 23.2166 -0.0557096 0 -1.9 1.6 -5.85861e-07 7.67698e-06 1.15457e-05 -8.52651e-14 -8.3 1.9 -15.5147 27.7149 4.56105 2.84217e-14 -4.5 0 -0.624938 -0.0345946 -0.0106004 0 -3.4 -2.27374e-13 2.98767e-05 -0.0197738 0.0451148 -0.25 -2.2 0.4 -5.85861e-07 7.67698e-06 1.15457e-05 -5.68434e-14 -8.3 1 -22.7862 23.5587 5.84107 0 -4.65 0 -3.36245 0.000373597 0.0155208 0 -3.3 0 -1.49209e-05 0.000329687 0.0160712 -0.5 -2.15 -0.8 -5.85861e-07 7.67698e-06 1.15457e-05 -5.68434e-14 -7.75 -0.2 -15.1863 7.58832 1.56705 2.84217e-14 -3.8 1.13687e-13 -1.79083 0.0143148 -0.00244355 0 -3.4 -1.13687e-13 -5.34276e-05 0.0222899 -0.00290634 -0.75 -1.75 -1.85 -5.85861e-07 7.67698e-06 1.15457e-05 -5.68434e-14 -7.15 -1 -23.6752 2.20325 1.24698 5.68434e-14 -3 1.13687e-13 -10.7665 -0.000980373 0.00157014 0 -2.35 0 -6.80135 -0.0010516 0.00453529 -5 17 -5.68434e-14 -0.697822 10.8649 5.35913 -6.45 0 -1.13687e-13 -0.54292 -1.16577 -1.90854 -6.45 2.84217e-14 0 -60.8117 17.9783 -25.6735 -2.84217e-14 -32.4 -2 33.0987 -30.177 45.2776 -5.68434e-14 -25.65 2 -2.70601 -12.8424 10.0804 0.5 -1.5 2.65 14.8917 18.3991 -166.562 0 -3.8 3.7 1.51087 17.2077 0.379741 -5.68434e-14 -3 2.7 0.292996 44.1917 -0.199563 0 -1.9 1.6 -5.06956e-05 1.72838e-05 -2.60034e-05 -5.68434e-14 -8.3 1.9 22.633 -0.277319 -0.123402 5.68434e-14 -4.5 0 10.2447 0.00395352 0.031188 0 -3.4 0 7.43549 -0.0168475 -0.000335504 0.25 -2.2 0.4 -5.06956e-05 1.72838e-05 -2.60034e-05 0 -8.3 1 27.7907 9.33875 -2.95687 0 -4.65 1.13687e-13 57.1422 0.0198388 -0.00275021 0 -3.3 -1.13687e-13 38.6821 0.0110254 -0.00720091 0.5 -2.15 -0.8 -5.06956e-05 1.72838e-05 -2.60034e-05 0 -7.75 -0.2 41.2622 6.54862 -4.23022 1.13687e-13 -3.8 -5.68434e-14 57.5909 -0.0157882 -0.000688558 0 -3.4 0 40.1559 -0.0147547 0.000704823 0.75 -1.75 -1.85 -5.06956e-05 1.72838e-05 -2.60034e-05 0 -7.15 -1 29.5404 14.8164 -5.36399 0 -3 -5.68434e-14 40.1645 -0.014998 -0.0155283 -1.13687e-13 -2.35 0 28.1974 0.00259389 -0.0317992 8 0 0 8.02973 -30.6775 -5.73306 0 -45 -1 2.29954 41.8698 -1.37217 0 -41 -2 -14.7166 -11.9819 -28.0364 1.13687e-13 -7.5 12.5 4.27318e-06 -1.81772e-06 -9.35499e-06 0 0 4 1.12695 -0.538479 16.7932 -8 0 -5.68434e-14 -11.8576 -12.7469 -20.0093 1.13687e-13 -45 -1 0.324773 22.4584 10.4803 0 -41 -2 3.5113 -7.9362 -26.6571 0 -7.5 12.5 -7.03699e-07 -5.54988e-06 -4.09558e-05 0 2.22045e-16 4 -5.28104 0.595612 27.6101 
-560.868 93.1542 749.76 -1.25929 -1.22055 -139.871 0 8 0 -5.27229 3.77406 7.71349 0 8 0 -0.302512 0.223818 2.16804 0 8 0 -0.150187 0.113345 1.08365 0 8 -5.68434e-14 -0.150006 0.11331 1.08349 0 17 5.68434e-14 -0.871637 3.31864 2.98717 1.13687e-13 10.8 1.13687e-13 5.82969 -4.10367 7.26684 5 17 0 -10.3609 5.23341 0.354203 6.45 0 5.68434e-14 -0.707235 0.382671 -1.01696 6.45 0 0 7.35878 1.16295 51.3217 0 -32.4 -2 -66.653 -40.2283 -26.0002 -5.68434e-14 -25.65 2 -10.1797 17.1638 33.6782 -0.5 -1.5 2.65 0.384296 -45.1606 7.81887 2.84217e-14 -3.8 3.7 0.136484 22.3532 -0.152103 -2.84217e-14 -3 2.7 0.0408208 23.1125 -0.0556663 0 -1.9 1.6 -5.85861e-07 7.67698e-06 1.15457e-05 0 -8.3 1.9 -16.2929 28.1984 4.85665 -2.84217e-14 -4.5 1.13687e-13 -0.624937 -0.0331452 -0.0106004 -2.84217e-14 -3.4 -1.13687e-13 2.98767e-05 -0.0197738 0.0451148 -0.25 -2.2 0.4 -5.85861e-07 7.67698e-06 1.15457e-05 2.84217e-14 -8.3 1 -24.501 23.939 6.37049 0 -4.65 0 -3.36245 0.000373597 0.0155208 5.68434e-14 -3.3 -1.13687e-13 -1.49209e-05 0.000329687 0.0160712 -0.5 -2.15 -0.8 -5.85861e-07 7.67698e-06 1.15457e-05 2.84217e-14 -7.75 -0.2 -15.9692 7.80186 1.69477 -2.84217e-14 -3.8 0 -1.79083 0.0143148 -0.00244355 0 -3.4 0 -5.3535e-05 0.0201713 -0.00290634 -0.75 -1.75 -1.85 -5.85861e-07 7.67698e-06 1.15457e-05 -8.52651e-14 -7.15 -1 -25.6315 2.2443 1.39539 2.84217e-14 -3 0 -10.2114 -0.000980373 0.00157014 0 -2.35 0 -6.35 -0.0010516 0.00453529 -5 17 0 -0.699265 10.9101 5.43855 -6.45 0 5.68434e-14 -0.5363 -1.16561 -1.8963 -6.45 0 -5.68434e-14 -60.9054 17.9211 -25.736 2.84217e-14 -32.4 -2 33.0553 -30.1169 45.1615 5.68434e-14 -25.65 2 -2.35241 -12.6851 10.104 0.5 -1.5 2.65 14.59 18.3748 -166.342 5.68434e-14 -3.8 3.7 1.5107 17.2313 0.379789 -5.68434e-14 -3 2.7 0.292996 44.1917 -0.199563 5.68434e-14 -1.9 1.6 -5.06956e-05 1.72838e-05 -2.60034e-05 0 -8.3 1.9 22.78 -0.296658 -0.120886 5.68434e-14 -4.5 1.13687e-13 10.2018 0.00395352 0.031188 -1.13687e-13 -3.4 0 7.40064 -0.0168475 -0.000335504 0.25 -2.2 0.4 -5.06956e-05 1.72838e-05 -2.60034e-05 0 -8.3 1 27.8565 9.49625 -2.99753 -1.13687e-13 -4.65 -5.68434e-14 56.1231 0.0207715 -0.00275021 0 -3.3 5.68434e-14 37.9059 0.0132373 -0.00720091 0.5 -2.15 -0.8 -5.06956e-05 1.72838e-05 -2.60034e-05 5.68434e-14 -7.75 -0.2 42.0012 6.24341 -4.19564 0 -3.8 0 56.5925 -0.0244183 -0.000688558 0 -3.4 0 39.3647 -0.0188517 0.00617529 0.75 -1.75 -1.85 -5.06956e-05 1.72838e-05 -2.60034e-05 -5.68434e-14 -7.15 -1 29.4105 14.66 -5.28808 0 -3 0 39.3462 -0.014998 -0.0155283 0 -2.35 0 27.6989 0.00259389 -0.0317992 8 0 5.68434e-14 8.0963 -30.6352 -5.70293 0 -45 -1 2.30164 41.8871 -1.37485 1.13687e-13 -41 -2 -14.7355 -12.0367 -28.0431 0 -7.5 12.5 4.27318e-06 -1.81772e-06 -9.35499e-06 -1.13687e-13 0 4 1.12094 -0.503138 16.7449 -8 -1.42109e-14 -5.68434e-14 -11.805 -12.7401 -19.9753 0 -45 -1 0.326844 22.448 10.4795 0 -41 -2 3.50365 -7.93774 -26.6966 -2.27374e-13 -7.5 12.5 -7.03699e-07 -5.54988e-06 -4.09558e-05 1.13687e-13 2.22045e-16 4 -5.28553 0.604257 27.5932 
-560.881 93.1543 749.728 -1.23961 -1.19894 -139.962 1.13687e-13 8 5.68434e-14 -5.22503 3.72019 7.70036 1.13687e-13 8 5.68434e-14 -0.276396 0.192075 2.15455 0 8 -5.68434e-14 -0.137284 0.09734 1.07786 1.13687e-13 8 5.68434e-14 -0.137246 0.0971214 1.07682 0 17 -5.68434e-14 -0.904545 3.36523 2.86819 0 10.8 -1.13687e-13 5.84756 -4.05409 6.98555 5 17 0 -10.4168 5.21488 0.438199 6.45 0 -5.68434e-14 -0.707288 0.383022 -1.01858 6.45 0 1.13687e-13 7.32908 1.4036 51.4701 -1.13687e-13 -32.4 -2 -66.783 -40.2835 -26.4447 5.68434e-14 -25.65 2 -10.1315 17.1044 33.7939 -0.5 -1.5 2.65 0.534301 -45.2752 8.04974 -5.68434e-14 -3.8 3.7 0.136265 22.2768 -0.15202 2.84217e-14 -3 2.7 0.0407849 23.0786 -0.0556522 -5.68434e-14 -1.9 1.6 -5.85861e-07 7.67698e-06 1.15457e-05 5.68434e-14 -8.3 1.9 -17.4954 28.6988 5.28708 -2.84217e-14 -4.5 0 -0.624937 -0.0316257 -0.0106004 0 -3.4 0 2.98767e-05 -0.0197738 0.0451148 -0.25 -2.2 0.4 -5.85861e-07 7.67698e-06 1.15457e-05 -5.68434e-14 -8.3 1 -26.7708 24.2489 7.0602 0 -4.65 0 -3.36245 0.000373597 0.0155208 -5.68434e-14 -3.3 0 -1.49209e-05 0.000329687 0.0160712 -0.5 -2.15 -0.8 -5.85861e-07 7.67698e-06 1.15457e-05 0 -7.75 -0.2 -16.5497 8.0943 1.82475 0 -3.8 0 -1.78712 0.0143148 -0.00244355 2.84217e-14 -3.4 -1.13687e-13 0.00353835 0.0179337 -0.00290634 -0.75 -1.75 -1.85 -5.85861e-07 7.67698e-06 1.15457e-05 -5.68434e-14 -7.15 -1 -27.7873 2.28848 1.58493 5.68434e-14 -3 -1.13687e-13 -9.63738 -0.000980373 0.00157014 0 -2.35 0 -5.85918 -0.0010516 0.00453529 -5 17 0 -0.70687 10.9626 5.52601 -6.45 0 0 -0.527257 -1.16539 -1.88269 -6.45 0 0 -60.9905 17.8778 -25.7698 0 -32.4 -2 32.9907 -30.0563 45.0586 5.68434e-14 -25.65 2 -2.1644 -12.7008 10.1092 0.5 -1.5 2.65 14.4759 18.404 -166.217 0 -3.8 3.7 1.51115 17.1672 0.379658 -1.13687e-13 -3 2.7 0.292996 44.1917 -0.199563 0 -1.9 1.6 -5.06956e-05 1.72838e-05 -2.60034e-05 -5.68434e-14 -8.3 1.9 22.7463 -0.485508 -0.082314 -1.13687e-13 -4.5 -1.13687e-13 10.2354 0.00395352 0.031188 0 -3.4 0 7.42735 -0.0168475 -0.000335504 0.25 -2.2 0.4 -5.06956e-05 1.72838e-05 -2.60034e-05 0 -8.3 1 27.5604 9.64249 -2.99251 1.13687e-13 -4.65 0 55.0462 0.0158565 -0.00275021 0 -3.3 5.68434e-14 37.1019 0.0112726 -0.00720091 0.5 -2.15 -0.8 -5.06956e-05 1.72838e-05 -2.60034e-05 0 -7.75 -0.2 42.5186 5.82886 -4.07774 0 -3.8 1.13687e-13 55.6623 -0.0266697 -0.000688558 -1.13687e-13 -3.4 5.68434e-14 38.6339 -0.0189623 0.0100098 0.75 -1.75 -1.85 -5.06956e-05 1.72838e-05 -2.60034e-05 0 -7.15 -1 29.0443 14.5331 -5.17627 0 -3 0 38.3226 -0.0152003 -0.0155283 0 -2.35 -5.68434e-14 27.0798 0.00259389 -0.0317992 8 0 5.68434e-14 8.15388 -30.592 -5.68432 0 -45 -1 2.30436 41.9096 -1.37832 0 -41 -2 -14.7527 -12.0986 -28.0446 0 -7.5 12.5 4.27318e-06 -1.81772e-06 -9.35499e-06 0 -1.77636e-15 4 1.11189 -0.468792 16.6772 -8 -1.42109e-14 5.68434e-14 -11.7565 -12.7344 -19.9316 -1.13687e-13 -45 -1 0.328281 22.4409 10.4789 0 -41 -2 3.50004 -7.94222 -26.7167 0 -7.5 12.5 -7.03699e-07 -5.54988e-06 -4.09558e-05 0 0 4 -5.29182 0.616768 27.5394 
